<svg width="21" height="14" viewBox="0 0 21 14" fill="none" xmlns="http://www.w3.org/2000/svg">
<path d="M20.8718 6.69068L14.3093 0.128184C14.1384 -0.042728 13.8616 -0.042728 13.6907 0.128184C13.5198 0.299096 13.5198 0.575952 13.6907 0.746823L19.5064 6.56251H0.437514C0.195686 6.56251 0 6.7582 0 7.00002C0 7.24185 0.195686 7.43754 0.437514 7.43754H19.5064L13.6907 13.2532C13.5198 13.4241 13.5198 13.701 13.6907 13.8718C13.7761 13.9573 13.8881 14 14 14C14.112 14 14.2239 13.9573 14.3094 13.8718L20.8719 7.30932C21.0427 7.13845 21.0427 6.8616 20.8718 6.69068Z" fill="#231F20"/>
</svg>
