<svg width="106" height="172" viewBox="0 0 106 172" fill="none" xmlns="http://www.w3.org/2000/svg">
<g clip-path="url(#clip0_641_18)">
<rect width="106" height="172" fill="white"/>
<path d="M23.1502 90.545C23.1502 92.4945 22.736 94.956 21.9473 96.6102H26.8772V88.4182H23.1502V90.545Z" fill="#0A0A0A"/>
<path d="M56.201 22.075C56.201 21.2086 55.5108 20.4996 54.6235 20.4996H52.4346V23.6307H54.6432C55.5305 23.6307 56.201 22.9415 56.201 22.075Z" fill="#0A0A0A"/>
<path d="M25.0636 122.604C22.5789 122.604 20.9619 124.396 20.9619 126.66C20.9619 128.925 22.5592 130.717 25.0636 130.717C27.5482 130.717 29.1653 128.925 29.1653 126.66C29.1653 124.396 27.5482 122.604 25.0636 122.604Z" fill="#0A0A0A"/>
<path d="M25.0437 60.6127H23.1309V63.6847H25.0437C25.931 63.6847 26.6409 62.9955 26.6409 62.129C26.6409 61.2626 25.931 60.6127 25.0437 60.6127Z" fill="#0A0A0A"/>
<path d="M26.3846 55.2564C26.3846 54.4491 25.6747 53.8189 24.8662 53.8189H23.1309V56.7334H24.8662C25.6747 56.7334 26.3846 56.1032 26.3846 55.2564Z" fill="#0A0A0A"/>
<path d="M54.3478 54.6854C51.8631 54.6854 50.2461 56.4774 50.2461 58.742C50.2461 61.0263 51.8434 62.7986 54.3478 62.7986C56.8324 62.7986 58.4494 61.0066 58.4494 58.742C58.4494 56.4774 56.8324 54.6854 54.3478 54.6854Z" fill="#0A0A0A"/>
<path d="M81.4814 27.0571H84.6957L83.0787 22.1537L81.4814 27.0571Z" fill="#0A0A0A"/>
<path d="M0 0V151.65H106.407V0H0ZM46.7946 15.419H55.2149C59.001 15.419 61.8998 18.4319 61.8998 22.1341C61.8998 25.7968 58.9813 28.7113 55.2149 28.7113H52.4541V33.7722H46.7946V15.419ZM16.5645 15.419H33.2078V33.7722H27.5483V20.4996H22.2437V33.7722H16.5645V15.419ZM32.3204 62.9955C32.3204 65.713 30.0724 67.9185 26.937 67.9185H17.4518V49.5654H26.582C29.4611 49.5654 31.5908 51.6134 31.5908 54.0946C31.5908 55.9063 30.4273 57.521 28.8103 58.3087C30.8217 59.057 32.3204 60.849 32.3204 62.9955ZM25.0636 136.231C18.9505 136.231 15.3221 132.017 15.3221 126.661C15.3221 121.344 18.9505 117.09 25.0636 117.09C31.1767 117.09 34.8051 121.344 34.8051 126.661C34.8051 132.017 31.1767 136.231 25.0636 136.231ZM35.6925 105.728H30.802V101.691H18.6744V105.728H13.784V96.6101H16.032C17.0772 94.956 17.7082 93.2034 17.7082 90.0132V83.3573H32.557V96.6298H35.7122V105.728H35.6925ZM60.8941 88.2606H53.4598V90.092H58.9813V94.7591H53.4598V96.748H60.8941V101.671H47.8003V83.3179H60.8941V88.2606ZM54.3472 68.3124C48.2341 68.3124 44.6057 64.0983 44.6057 58.742C44.6057 53.4251 48.2341 49.1715 54.3472 49.1715C60.4603 49.1715 64.0887 53.4251 64.0887 58.742C64.0887 64.0983 60.4603 68.3124 54.3472 68.3124ZM91.8341 101.691H86.1746V88.4182H82.4279V91.0569C82.4279 98.6778 79.6277 101.671 75.9007 101.671H73.633V96.5905H74.3232C76.1571 96.5905 77.0444 95.3498 77.0444 89.7966V83.3179H91.8539V101.691H91.8341ZM87.7325 56.3395V61.0066H82.211V62.9955H89.6453V67.9185H76.5515V49.5654H89.6453V54.4884H82.211V56.3198H87.7325V56.3395ZM86.8845 33.7722L86.1155 31.4682H80.0221L79.2925 33.7722H73.5935L79.8446 15.419H86.3324L92.5835 33.7722H86.8845Z" fill="#0A0A0A"/>
<path d="M7.224 162.096V170.496H6.024V166.752H1.2V170.496H0V162.096H1.2V165.708H6.024V162.096H7.224Z" fill="black"/>
<path d="M19.5037 168.396H15.0397L14.1157 170.496H12.8797L16.6838 162.096H17.8717L21.6877 170.496H20.4277L19.5037 168.396ZM19.0837 167.436L17.2717 163.32L15.4597 167.436H19.0837Z" fill="black"/>
<path d="M34.2367 162.096V170.496H33.0607V163.14H29.3407L29.2567 165.6C29.2167 166.76 29.1207 167.7 28.9687 168.42C28.8247 169.14 28.5927 169.684 28.2727 170.052C27.9527 170.412 27.5207 170.592 26.9767 170.592C26.7287 170.592 26.4767 170.56 26.2207 170.496L26.3047 169.428C26.4327 169.46 26.5607 169.476 26.6887 169.476C27.0327 169.476 27.3087 169.34 27.5167 169.068C27.7247 168.788 27.8807 168.372 27.9847 167.82C28.0887 167.268 28.1567 166.54 28.1887 165.636L28.3207 162.096H34.2367Z" fill="black"/>
<path d="M44.8331 170.592C43.9851 170.592 43.2211 170.408 42.5411 170.04C41.8611 169.664 41.3251 169.148 40.9331 168.492C40.5491 167.836 40.3571 167.104 40.3571 166.296C40.3571 165.488 40.5491 164.756 40.9331 164.1C41.3251 163.444 41.8611 162.932 42.5411 162.564C43.2211 162.188 43.9851 162 44.8331 162C45.6731 162 46.4331 162.188 47.1131 162.564C47.7931 162.932 48.3251 163.444 48.7091 164.1C49.0931 164.748 49.2851 165.48 49.2851 166.296C49.2851 167.112 49.0931 167.848 48.7091 168.504C48.3251 169.152 47.7931 169.664 47.1131 170.04C46.4331 170.408 45.6731 170.592 44.8331 170.592ZM44.8331 169.524C45.4491 169.524 46.0011 169.384 46.4891 169.104C46.9851 168.824 47.3731 168.44 47.6531 167.952C47.9411 167.456 48.0851 166.904 48.0851 166.296C48.0851 165.688 47.9411 165.14 47.6531 164.652C47.3731 164.156 46.9851 163.768 46.4891 163.488C46.0011 163.208 45.4491 163.068 44.8331 163.068C44.2171 163.068 43.6571 163.208 43.1531 163.488C42.6571 163.768 42.2651 164.156 41.9771 164.652C41.6971 165.14 41.5571 165.688 41.5571 166.296C41.5571 166.904 41.6971 167.456 41.9771 167.952C42.2651 168.44 42.6571 168.824 43.1531 169.104C43.6571 169.384 44.2171 169.524 44.8331 169.524Z" fill="black"/>
<path d="M60.921 163.14H56.601L56.613 170.496H55.425V162.096H60.933L60.921 163.14Z" fill="black"/>
<path d="M66.5625 162.096H67.7505V168.576L72.7185 162.096H73.8225V170.496H72.6465V164.028L67.6665 170.496H66.5625V162.096Z" fill="black"/>
</g>
<defs>
<clipPath id="clip0_641_18">
<rect width="106" height="172" fill="white"/>
</clipPath>
</defs>
</svg>
