<svg width="107" height="174" viewBox="0 0 107 174" fill="none" xmlns="http://www.w3.org/2000/svg">
<path d="M23.1502 91.4715C23.1502 93.421 22.736 95.8825 21.9473 97.5367H26.8772V89.3447H23.1502V91.4715Z" fill="#231F20"/>
<path d="M56.2 23.0015C56.2 22.1351 55.5099 21.4261 54.6225 21.4261H52.4336V24.5572H54.6422C55.5296 24.5572 56.2 23.868 56.2 23.0015Z" fill="#231F20"/>
<path d="M25.0626 123.53C22.5779 123.53 20.9609 125.322 20.9609 127.587C20.9609 129.852 22.5582 131.644 25.0626 131.644C27.5473 131.644 29.1643 129.852 29.1643 127.587C29.1643 125.322 27.5473 123.53 25.0626 123.53Z" fill="#231F20"/>
<path d="M25.0437 61.5392H23.1309V64.6112H25.0437C25.931 64.6112 26.6409 63.922 26.6409 63.0555C26.6409 62.1891 25.931 61.5392 25.0437 61.5392Z" fill="#231F20"/>
<path d="M26.3846 56.183C26.3846 55.3756 25.6747 54.7454 24.8662 54.7454H23.1309V57.6599H24.8662C25.6747 57.6599 26.3846 57.0297 26.3846 56.183Z" fill="#231F20"/>
<path d="M54.3478 55.6119C51.8631 55.6119 50.2461 57.4039 50.2461 59.6685C50.2461 61.9528 51.8434 63.7251 54.3478 63.7251C56.8324 63.7251 58.4494 61.9331 58.4494 59.6685C58.4494 57.4039 56.8324 55.6119 54.3478 55.6119Z" fill="#231F20"/>
<path d="M81.4805 27.9836H84.6948L83.0777 23.0803L81.4805 27.9836Z" fill="#231F20"/>
<path d="M0 0.926514V152.576H106.407V0.926514H0ZM46.7946 16.3455H55.2149C59.001 16.3455 61.8998 19.3585 61.8998 23.0606C61.8998 26.7234 58.9813 29.6378 55.2149 29.6378H52.4541V34.6987H46.7946V16.3455ZM16.5645 16.3455H33.2078V34.6987H27.5483V21.4261H22.2437V34.6987H16.5645V16.3455ZM32.3204 63.922C32.3204 66.6395 30.0724 68.8451 26.937 68.8451H17.4518V50.4919H26.582C29.4611 50.4919 31.5908 52.5399 31.5908 55.0211C31.5908 56.8328 30.4273 58.4476 28.8103 59.2352C30.8217 59.9836 32.3204 61.7755 32.3204 63.922ZM25.0636 137.157C18.9505 137.157 15.3221 132.943 15.3221 127.587C15.3221 122.27 18.9505 118.017 25.0636 118.017C31.1767 118.017 34.8051 122.27 34.8051 127.587C34.8051 132.943 31.1767 137.157 25.0636 137.157ZM35.6925 106.654H30.802V102.617H18.6744V106.654H13.784V97.5367H16.032C17.0772 95.8825 17.7082 94.1299 17.7082 90.9398V84.2838H32.557V97.5564H35.7122V106.654H35.6925ZM60.8941 89.1871H53.4598V91.0185H58.9813V95.6856H53.4598V97.6745H60.8941V102.598H47.8003V84.2444H60.8941V89.1871ZM54.3472 69.2389C48.2341 69.2389 44.6057 65.0248 44.6057 59.6685C44.6057 54.3516 48.2341 50.098 54.3472 50.098C60.4603 50.098 64.0887 54.3516 64.0887 59.6685C64.0887 65.0248 60.4603 69.2389 54.3472 69.2389ZM91.8341 102.617H86.1746V89.3447H82.4279V91.9835C82.4279 99.6044 79.6277 102.598 75.9007 102.598H73.633V97.517H74.3232C76.1571 97.517 77.0444 96.2764 77.0444 90.7231V84.2444H91.8539V102.617H91.8341ZM87.7325 57.266V61.9331H82.211V63.922H89.6453V68.8451H76.5515V50.4919H89.6453V55.415H82.211V57.2463H87.7325V57.266ZM86.8845 34.6987L86.1155 32.3947H80.0221L79.2925 34.6987H73.5935L79.8446 16.3455H86.3324L92.5835 34.6987H86.8845Z" fill="#231F20"/>
<path d="M7.236 163.096V171.496H6.06V164.14H1.188V171.496H0V163.096H7.236Z" fill="#231F20"/>
<path d="M18.0755 171.592C17.2275 171.592 16.4635 171.408 15.7835 171.04C15.1035 170.664 14.5675 170.148 14.1755 169.492C13.7915 168.836 13.5995 168.104 13.5995 167.296C13.5995 166.488 13.7915 165.756 14.1755 165.1C14.5675 164.444 15.1035 163.932 15.7835 163.564C16.4635 163.188 17.2275 163 18.0755 163C18.9155 163 19.6755 163.188 20.3555 163.564C21.0355 163.932 21.5675 164.444 21.9515 165.1C22.3355 165.748 22.5275 166.48 22.5275 167.296C22.5275 168.112 22.3355 168.848 21.9515 169.504C21.5675 170.152 21.0355 170.664 20.3555 171.04C19.6755 171.408 18.9155 171.592 18.0755 171.592ZM18.0755 170.524C18.6915 170.524 19.2435 170.384 19.7315 170.104C20.2275 169.824 20.6155 169.44 20.8955 168.952C21.1835 168.456 21.3275 167.904 21.3275 167.296C21.3275 166.688 21.1835 166.14 20.8955 165.652C20.6155 165.156 20.2275 164.768 19.7315 164.488C19.2435 164.208 18.6915 164.068 18.0755 164.068C17.4595 164.068 16.8995 164.208 16.3955 164.488C15.8995 164.768 15.5075 165.156 15.2195 165.652C14.9395 166.14 14.7995 166.688 14.7995 167.296C14.7995 167.904 14.9395 168.456 15.2195 168.952C15.5075 169.44 15.8995 169.824 16.3955 170.104C16.8995 170.384 17.4595 170.524 18.0755 170.524Z" fill="#231F20"/>
<path d="M36.677 170.452V173.332H35.561V171.496H28.649L28.637 173.332H27.521L27.533 170.452H27.941C28.469 170.42 28.841 170.004 29.057 169.204C29.273 168.396 29.405 167.26 29.453 165.796L29.537 163.096H35.441V170.452H36.677ZM30.509 165.904C30.469 167.088 30.373 168.068 30.221 168.844C30.077 169.62 29.841 170.156 29.513 170.452H34.253V164.14H30.569L30.509 165.904Z" fill="#231F20"/>
<path d="M48.2527 169.396H43.7887L42.8647 171.496H41.6287L45.4327 163.096H46.6207L50.4367 171.496H49.1767L48.2527 169.396ZM47.8327 168.436L46.0207 164.32L44.2087 168.436H47.8327Z" fill="#231F20"/>
<path d="M61.6765 164.14H58.7965V171.496H57.6205V164.14H54.7525V163.096H61.6765V164.14Z" fill="#231F20"/>
<path d="M70.503 167.8H68.751V171.496H67.575V163.096H68.751V166.744H70.527L73.167 163.096H74.451L71.451 167.164L74.595 171.496H73.227L70.503 167.8Z" fill="#231F20"/>
<path d="M80.265 163.096H81.453V169.576L86.421 163.096H87.525V171.496H86.349V165.028L81.369 171.496H80.265V163.096Z" fill="#231F20"/>
</svg>
