<svg width="40" height="40" viewBox="0 0 40 40" fill="none" xmlns="http://www.w3.org/2000/svg">
<path fill-rule="evenodd" clip-rule="evenodd" d="M20 40C31.0457 40 40 31.0457 40 20C40 8.9543 31.0457 0 20 0C8.9543 0 0 8.9543 0 20C0 31.0457 8.9543 40 20 40ZM21.2433 25.5179C18.3407 24.0307 15.9612 21.6615 14.4843 18.7589L16.7407 16.5025C17.0279 16.2154 17.1099 15.8154 16.9971 15.4564C16.6176 14.3077 16.4125 13.0769 16.4125 11.7948C16.4125 11.2307 15.951 10.7692 15.3869 10.7692H11.7971C11.233 10.7692 10.7715 11.2307 10.7715 11.7948C10.7715 21.4256 18.5766 29.2307 28.2074 29.2307C28.7715 29.2307 29.233 28.7692 29.233 28.2051V24.6256C29.233 24.0615 28.7715 23.6 28.2074 23.6C26.9356 23.6 25.6946 23.3948 24.5458 23.0154C24.1869 22.8923 23.7766 22.9846 23.4997 23.2615L21.2433 25.5179Z" fill="#231F20"/>
</svg>
