<svg width="85" height="74" viewBox="0 0 85 74" fill="none" xmlns="http://www.w3.org/2000/svg">
<path d="M23.328 43.776C27.552 43.776 30.912 45.12 33.408 47.808C35.904 50.304 37.152 53.76 37.152 58.176C37.152 62.976 35.616 66.72 32.544 69.408C29.664 71.904 25.632 73.152 20.448 73.152C14.112 73.152 9.12 70.752 5.472 65.952C1.824 60.96 0 53.952 0 44.928C0 36.48 1.824 28.704 5.472 21.6C9.312 14.496 14.88 7.39199 22.176 0.287994C22.368 0.0959969 22.656 0 23.04 0C23.616 0 24.096 0.288002 24.48 0.864006C24.864 1.44 24.864 1.91999 24.48 2.304C15.072 11.904 10.368 23.232 10.368 36.288C10.368 41.664 11.328 45.6 13.248 48.096C14.976 45.216 18.336 43.776 23.328 43.776ZM70.56 43.776C74.784 43.776 78.144 45.12 80.64 47.808C83.136 50.304 84.384 53.76 84.384 58.176C84.384 62.976 82.848 66.72 79.776 69.408C76.896 71.904 72.864 73.152 67.68 73.152C61.344 73.152 56.352 70.752 52.704 65.952C49.056 60.96 47.232 53.952 47.232 44.928C47.232 36.48 49.056 28.704 52.704 21.6C56.544 14.496 62.112 7.39199 69.408 0.287994C69.6 0.0959969 69.888 0 70.272 0C70.848 0 71.328 0.288002 71.712 0.864006C72.096 1.44 72.096 1.91999 71.712 2.304C62.304 11.904 57.6 23.232 57.6 36.288C57.6 41.664 58.56 45.6 60.48 48.096C62.208 45.216 65.568 43.776 70.56 43.776Z" fill="#231F20"/>
</svg>
