<svg width="330" height="95" viewBox="0 0 330 95" fill="none" xmlns="http://www.w3.org/2000/svg">
<path fill-rule="evenodd" clip-rule="evenodd" d="M27.6631 55.858L26.6013 56.464C29.4329 60.6559 34.2364 63.4336 39.6468 63.4336C48.3437 63.4336 55.3721 56.4135 55.3721 47.7269C55.3721 39.0402 48.3437 32.0202 39.6468 32.0202C30.9498 32.0202 23.9214 39.0402 23.9214 47.7269C23.9214 50.3531 24.5788 52.7773 25.6912 54.9489L26.753 54.3429C27.1575 54.0904 27.7137 54.2419 27.9665 54.6459C28.2699 55.0499 28.1182 55.6055 27.6631 55.858ZM35.2477 56.06L37.6748 56.7166C37.8265 56.7671 37.9276 56.9186 37.877 57.0701C37.8265 57.2216 37.6748 57.3226 37.5231 57.2721L35.096 56.6156C34.641 57.2721 33.2252 57.4741 31.7082 57.0701C29.9891 56.6156 28.7755 55.555 29.0284 54.6964C29.2812 53.8378 30.8487 53.5348 32.5678 53.9894C34.0342 54.3934 35.1466 55.3025 35.2477 56.06ZM33.0735 52.3227C33.3263 51.4642 34.8938 51.1611 36.6129 51.6157C38.1299 52.0197 39.2423 52.9288 39.3434 53.7368L41.7704 54.3934C41.9221 54.4439 42.0233 54.5954 41.9727 54.7469C41.9221 54.8984 41.7704 54.9994 41.6187 54.9489L39.1917 54.2924C38.7366 54.9489 37.3208 55.1509 35.8039 54.7469C34.0342 54.2924 32.8712 53.1813 33.0735 52.3227ZM37.2197 49.949C37.4725 49.0905 39.04 48.7369 40.7592 49.242C42.2761 49.646 43.3885 50.5551 43.4896 51.3631L45.9167 52.0197C46.0684 52.0702 46.1695 52.2217 46.1189 52.3732C46.0684 52.5247 45.9167 52.6258 45.765 52.5752L43.3379 51.9187C42.8828 52.5752 41.4671 52.7773 39.9501 52.3732C38.1804 51.9187 36.9669 50.8076 37.2197 49.949ZM41.3154 47.5753C41.5682 46.7168 43.1357 46.3633 44.8548 46.8683C46.3717 47.2723 47.4841 48.1814 47.5853 48.9895L50.0123 49.646C50.164 49.6965 50.2652 49.848 50.2146 49.9995C50.164 50.1511 50.0123 50.2521 49.8606 50.2016L47.4336 49.545C46.9785 50.2016 45.5627 50.4036 44.0458 49.9995C42.2761 49.545 41.0625 48.4339 41.3154 47.5753ZM31.0004 45.2522L30.343 47.6764C31.0004 48.1309 31.2026 49.545 30.7981 51.0601C30.343 52.7773 29.2812 53.9894 28.371 53.7368C27.5115 53.4843 27.1575 51.9187 27.6631 50.2016C28.0677 48.6864 28.9778 47.5754 29.7868 47.4744L30.4441 45.0502C30.4947 44.8986 30.6464 44.7976 30.7981 44.8481C30.9498 44.8986 31.0509 45.1007 31.0004 45.2522ZM35.1466 42.8785L34.4893 45.3027C35.1466 45.7572 35.3488 47.1713 34.9443 48.6864C34.4893 50.4036 33.3769 51.6157 32.5173 51.3631C31.6577 51.1106 31.3037 49.545 31.8094 47.8279C32.2139 46.3128 33.124 45.2017 33.9331 45.1007L34.5904 42.6765C34.641 42.525 34.7926 42.424 34.9443 42.4745C35.096 42.525 35.1971 42.727 35.1466 42.8785ZM39.2423 40.5048L38.5849 42.929C39.2423 43.3835 39.4445 44.7976 39.04 46.3128C38.5849 48.0299 37.5231 49.242 36.6635 48.9895C35.8039 48.7369 35.5005 47.1713 35.9556 45.4542C36.3601 43.9391 37.2197 42.7775 38.0793 42.727L38.7366 40.3028C38.7872 40.1513 38.9389 40.0503 39.0906 40.1008C39.1917 40.1513 39.2423 40.3533 39.2423 40.5048ZM43.3379 38.1311L42.6806 40.5553C43.3379 41.0098 43.5402 42.424 43.1357 43.9391C42.6806 45.6562 41.6187 46.8683 40.7086 46.6158C39.849 46.3633 39.4951 44.7976 39.9501 43.0805C40.3547 41.5654 41.2648 40.4543 42.0738 40.3533L42.7312 37.9291C42.7817 37.7776 42.9334 37.6766 43.0851 37.7271C43.2874 37.7776 43.3885 37.9796 43.3379 38.1311ZM46.6246 42.0199C47.9898 41.2119 49.4056 41.0604 50.0123 41.5654L52.1866 40.3028C52.3383 40.2018 52.49 40.2523 52.5911 40.4038C52.6922 40.5553 52.6417 40.7068 52.49 40.8078L50.3157 42.0704C50.4674 42.8785 49.6078 43.9896 48.2426 44.7976C46.6751 45.7067 45.1077 45.7572 44.6526 44.9997C44.1975 44.2421 45.1076 42.8785 46.6246 42.0199ZM39.6973 30C29.9385 30 22 37.9291 22 47.6764C22 57.4236 29.9385 65.3527 39.6973 65.3527C49.4561 65.3527 57.3946 57.4236 57.3946 47.6764C57.3946 37.9291 49.4561 30 39.6973 30Z" fill="#C0C0C0"/>
<path d="M298.433 50.9591H302.731L300.607 45.7067L298.433 50.9591ZM309.001 57.2721H305.31L304.046 54.1408H297.169L295.905 57.2721H292.214L300.607 38.3836L309.001 57.2721ZM283.466 41.5149H280.078V49.3935H283.466C285.64 49.3935 287.41 47.6258 287.41 45.4542C287.41 43.2825 285.64 41.5149 283.466 41.5149ZM280.078 57.2721H276.943V38.3836H283.517C287.461 38.3836 290.646 41.5654 290.646 45.4542C290.646 48.2319 289.079 50.6056 286.803 51.7671L290.09 57.2721H285.843L283.011 52.5247H280.028V57.2721H280.078ZM263.696 50.9591H267.994L265.87 45.7067L263.696 50.9591ZM274.264 57.2721H270.572L269.308 54.1408H262.432L261.168 57.2721H257.476L265.87 38.3836L274.264 57.2721ZM234.824 38.3331L244.835 48.3329L254.847 38.3331V57.2721H251.712V46.7673L244.886 53.5853L238.06 46.7673V57.2721H234.925V38.3331H234.824ZM221.627 50.9591H225.925L223.801 45.7067L221.627 50.9591ZM232.194 57.2721H228.503L227.239 54.1408H220.363L219.098 57.2721H215.407L223.801 38.3836L232.194 57.2721ZM203.221 47.1713C201.957 45.9087 201.806 44.7976 201.806 43.3835C201.806 40.5048 204.89 38.1311 207.823 38.1311C210.705 38.1311 213.84 40.3028 213.84 42.3229L210.705 43.3835C210.705 42.2219 209.441 41.2623 207.873 41.2623C206.306 41.2623 205.042 42.2219 205.042 43.3835C205.042 44.5451 206.255 45.4037 207.873 45.7067C209.744 46.0097 210.604 46.2117 211.463 46.5652C212.879 47.1713 214.396 48.4844 214.396 51.6661C214.396 54.8479 211.059 57.4236 207.873 57.4236C204.688 57.4236 201.351 55.1509 201.351 52.6762L204.486 51.6156C204.486 53.0802 206.457 54.2418 207.873 54.2418C209.39 54.2418 211.261 53.0802 211.261 51.6156C211.261 49.747 209.39 49.1914 207.873 48.7874C205.75 48.3329 204.182 48.1814 203.221 47.1713ZM190.732 41.5149H184.412V46.2622H189.67V49.3935H184.412V54.1408H191.794L190.732 57.2721H181.277V38.3836H191.794L190.732 41.5149ZM170.759 38.3331V54.0903H178.142L177.08 57.2215H167.625V38.3331H170.759ZM154.984 41.5149C151.495 41.5149 148.663 44.3431 148.663 47.8278C148.663 51.3126 151.495 54.1408 154.984 54.1408C158.472 54.1408 161.304 51.3126 161.304 47.8278C161.304 44.2926 158.472 41.5149 154.984 41.5149ZM154.984 38.3331C160.192 38.3331 164.439 42.5754 164.439 47.7773C164.439 52.9792 160.192 57.2215 154.984 57.2215C149.725 57.2215 145.528 52.9792 145.528 47.7773C145.528 42.5754 149.725 38.3331 154.984 38.3331ZM142.899 54.4943C141.18 56.2115 138.803 57.2721 136.224 57.2721C131.016 57.2721 126.769 53.0297 126.769 47.8278C126.769 42.6259 131.016 38.3836 136.224 38.3836C138.854 38.3836 141.23 39.4442 142.899 41.1613L140.674 43.3835C139.562 42.2724 137.944 41.5149 136.224 41.5149C132.735 41.5149 129.904 44.3431 129.904 47.8278C129.904 51.3126 132.735 54.1408 136.224 54.1408C137.994 54.1408 139.562 53.4338 140.674 52.2722L142.899 54.4943ZM123.027 38.3331V57.2721H119.892V38.3836H123.027V38.3331ZM109.072 41.5149H105.684V49.3935H109.072C111.246 49.3935 113.016 47.6258 113.016 45.4542C113.066 43.2825 111.296 41.5149 109.072 41.5149ZM105.684 57.2721H102.549V38.3836H109.122C113.066 38.3836 116.252 41.5654 116.252 45.4542C116.252 48.2319 114.684 50.6056 112.409 51.7671L115.695 57.2721H111.499L108.667 52.5247H105.684V57.2721ZM99.3634 47.8278C99.3634 53.0297 95.116 57.2721 89.908 57.2721C84.6999 57.2721 80.4525 53.0297 80.4525 47.8278C80.4525 42.6259 84.6999 38.3836 89.908 38.3836C92.5373 38.3836 94.9138 39.4442 96.5824 41.1613L94.3576 43.3835C93.2452 42.2724 91.6271 41.5149 89.908 41.5149C86.4191 41.5149 83.5875 44.3431 83.5875 47.8278C83.5875 51.3126 86.4191 54.1408 89.908 54.1408C92.8407 54.1408 95.3183 52.1207 96.0262 49.3935H90.4136L89.908 46.2622H99.3634V47.8278ZM68.8229 50.9591H73.1208L70.9971 45.7067L68.8229 50.9591ZM79.3907 57.2721H75.6995L74.4354 54.1408H67.5588L66.2947 57.2721H62.6035L70.9971 38.3836L79.3907 57.2721Z" fill="#686868"/>
</svg>
