<svg width="330" height="95" viewBox="0 0 330 95" fill="none" xmlns="http://www.w3.org/2000/svg">
<path d="M97.5488 18C142.854 18 188.129 18 233.449 18C233.449 22.7673 233.449 27.5037 233.449 32.2866C232.954 32.2866 232.474 32.2866 231.932 32.2866C231.932 28.0455 231.932 23.8199 231.932 19.5633C187.633 19.5633 143.396 19.5633 99.0812 19.5633C99.0812 23.8044 99.0812 28.03 99.0812 32.2866C98.5394 32.2866 98.0596 32.2866 97.5488 32.2866C97.5488 27.5347 97.5488 22.7828 97.5488 18Z" fill="#646464"/>
<path d="M231.932 75.5178C231.932 71.5089 231.932 67.5619 231.932 63.584C232.459 63.584 232.939 63.584 233.449 63.584C233.449 68.0882 233.449 72.5615 233.449 77.0812C188.144 77.0812 142.87 77.0812 97.5488 77.0812C97.5488 72.5924 97.5488 68.1037 97.5488 63.584C98.0441 63.584 98.524 63.584 99.0657 63.584C99.0657 67.5619 99.0657 71.5244 99.0657 75.5178C143.38 75.5178 187.602 75.5178 231.932 75.5178Z" fill="#646464"/>
<path d="M214.845 37.7042C214.985 37.6887 215.109 37.6732 215.248 37.6732C217.306 37.6732 219.35 37.6422 221.408 37.6887C222.151 37.7042 222.894 37.828 223.606 37.9982C224.891 38.3078 225.835 39.0817 226.083 40.4438C226.361 41.9452 225.974 43.23 224.674 44.1432C224.287 44.4218 223.838 44.623 223.389 44.8707C223.467 45.0255 223.529 45.1648 223.606 45.3041C224.504 46.821 225.386 48.3224 226.284 49.8238C226.64 50.412 227.011 51.0001 227.785 51.2014C226.207 51.836 223.807 51.0311 223.003 49.6071C222.229 48.2604 221.486 46.9138 220.774 45.5362C220.495 45.01 220.17 44.8242 219.551 45.0409C219.551 45.4279 219.551 45.8613 219.551 46.2792C219.551 47.471 219.551 48.6629 219.551 49.8547C219.551 50.9382 219.737 51.124 220.805 51.1549C220.959 51.1549 221.114 51.1859 221.253 51.3097C219.117 51.3097 216.966 51.3097 214.83 51.3097C214.83 51.2787 214.814 51.2478 214.814 51.2168C215.016 51.2014 215.201 51.1704 215.403 51.1704C216.269 51.1549 216.502 50.9382 216.533 50.0714C216.548 49.4987 216.533 48.9105 216.533 48.3378C216.533 45.3969 216.533 42.4406 216.533 39.4996C216.533 39.2984 216.533 39.0817 216.517 38.8805C216.455 38.1375 216.223 37.9208 215.434 37.9054C215.232 37.9054 215.016 37.8899 214.814 37.8744C214.845 37.797 214.845 37.7506 214.845 37.7042ZM219.597 44.7468C220.015 44.7468 220.371 44.7623 220.727 44.7468C221.795 44.7159 222.445 44.2361 222.724 43.199C223.049 41.9452 223.049 40.6915 222.724 39.4377C222.523 38.6793 222.089 38.1066 221.284 37.9518C220.743 37.8589 220.185 37.8744 219.597 37.8435C219.597 40.1807 219.597 42.4251 219.597 44.7468Z" fill="#646464"/>
<path d="M148.318 37.7039C148.458 37.6884 148.597 37.673 148.736 37.673C150.764 37.673 152.807 37.6265 154.835 37.6884C155.701 37.7194 156.584 37.8587 157.404 38.1218C159.323 38.71 160.562 40.0257 161.057 41.9914C161.537 43.8643 161.459 45.7372 160.747 47.5327C159.726 50.0402 157.729 51.2011 155.113 51.3095C152.915 51.3869 150.717 51.3249 148.504 51.3249C148.442 51.3249 148.38 51.294 148.303 51.1702C148.566 51.1547 148.814 51.1392 149.077 51.1237C149.711 51.0928 149.943 50.8761 150.021 50.2415C150.052 50.0248 150.036 49.7926 150.036 49.5759C150.036 46.1861 150.036 42.7808 150.036 39.3911C150.036 38.2611 149.974 37.7504 148.566 37.8432C148.488 37.8432 148.396 37.8123 148.318 37.7968C148.318 37.7813 148.318 37.7504 148.318 37.7039ZM153.101 37.8432C153.101 42.3475 153.101 46.7124 153.101 51.1392C153.55 51.1392 153.983 51.1547 154.401 51.1392C155.918 51.0928 157.033 50.3808 157.481 48.9258C157.776 47.9971 157.946 47.0065 158.039 46.0313C158.209 44.1584 158.193 42.2701 157.683 40.4281C157.311 39.1279 156.537 38.2147 155.144 37.9825C154.494 37.8587 153.813 37.8897 153.101 37.8432Z" fill="#646464"/>
<path d="M245.972 44.4061C245.957 46.2635 245.632 47.9352 244.502 49.3437C243.047 51.1701 241.066 51.6654 238.852 51.5107C237.15 51.4023 235.648 50.8296 234.534 49.4675C233.837 48.6162 233.419 47.6101 233.218 46.5421C232.893 44.8085 232.908 43.0904 233.497 41.4033C234.271 39.1434 235.896 37.8742 238.264 37.5646C240.617 37.255 242.784 37.6265 244.424 39.5459C245.632 40.9544 245.941 42.688 245.972 44.4061ZM242.907 44.5144C242.861 44.5144 242.83 44.4989 242.784 44.4989C242.737 43.725 242.784 42.9201 242.644 42.1617C242.459 41.1247 242.242 40.0721 241.855 39.097C241.499 38.1683 240.663 37.7039 239.642 37.673C238.558 37.642 237.707 38.0599 237.18 39.0041C236.948 39.422 236.763 39.8864 236.654 40.3507C236.128 42.5641 236.128 44.824 236.391 47.0684C236.499 47.9971 236.732 48.9567 237.088 49.808C237.66 51.1392 239.053 51.6654 240.415 51.2011C241.437 50.8606 242.01 50.0557 242.211 49.0806C242.521 47.5791 242.691 46.0468 242.907 44.5144Z" fill="#646464"/>
<path d="M119.932 37.7039C122.083 37.7039 124.235 37.7039 126.386 37.7039C126.386 37.7503 126.402 37.7812 126.402 37.8277C126.185 37.8432 125.968 37.8586 125.736 37.8741C124.962 37.9051 124.684 38.1218 124.668 38.9267C124.637 40.134 124.653 41.3568 124.653 42.5641C124.653 43.3535 124.653 44.1274 124.653 44.9632C124.761 44.9168 124.823 44.9013 124.869 44.8549C126.417 43.1832 127.949 41.5115 129.497 39.8244C129.668 39.6387 129.822 39.422 129.962 39.2053C130.426 38.4468 130.225 38.0134 129.343 37.9206C129.017 37.8896 128.692 37.8741 128.383 37.7348C129.915 37.7348 131.448 37.7348 132.98 37.7348C132.964 37.7812 132.949 37.8432 132.934 37.8432C131.757 37.8586 130.983 38.5706 130.256 39.36C129.343 40.3507 128.429 41.3413 127.516 42.3164C127.33 42.5176 127.253 42.6724 127.423 42.9356C128.956 45.3192 130.457 47.7184 132.005 50.0866C132.314 50.5664 132.81 50.9069 133.212 51.3094C133.228 51.3094 133.119 51.3558 133.011 51.3403C132.252 51.3094 131.479 51.2939 130.72 51.2475C129.513 51.1856 128.661 50.6129 128.058 49.5758C127.268 48.1828 126.433 46.8052 125.628 45.4276C125.519 45.2418 125.396 45.0406 125.256 44.8239C124.854 45.0716 124.622 45.3502 124.637 45.8455C124.668 47.1302 124.637 48.4149 124.653 49.6996C124.653 50.9224 124.823 51.0927 126.03 51.1237C126.154 51.1237 126.262 51.1546 126.386 51.263C124.235 51.263 122.083 51.263 119.947 51.263C119.947 51.232 119.932 51.201 119.932 51.1701C120.195 51.1546 120.442 51.1391 120.706 51.1237C121.371 51.0927 121.634 50.8605 121.634 50.1949C121.65 46.4027 121.65 42.626 121.634 38.8338C121.634 38.1218 121.356 37.8896 120.628 37.8586C120.396 37.8586 120.164 37.8586 119.947 37.8586C119.932 37.8122 119.932 37.7658 119.932 37.7039Z" fill="#646464"/>
<path d="M84.409 43.7559C84.4244 42.7034 84.7031 41.0007 85.8485 39.5767C87.3499 37.7193 89.4085 37.3169 91.6374 37.4871C94.9498 37.7503 96.7917 39.9482 97.2251 42.9046C97.4263 44.2822 97.3954 45.6597 97.0239 47.0064C96.0952 50.3342 93.4174 51.7273 90.1979 51.4951C88.0619 51.3403 86.3592 50.489 85.3067 48.5542C84.6102 47.3005 84.3935 45.9074 84.409 43.7559ZM87.4582 44.4834C87.5047 44.4834 87.5356 44.4989 87.582 44.4989C87.613 45.2573 87.582 46.0467 87.7213 46.7897C87.9226 47.8577 88.0774 48.9876 88.5572 49.9473C89.5014 51.8511 92.1327 51.8356 93.2007 49.9937C93.4329 49.5913 93.6031 49.1424 93.7115 48.6935C94.2532 46.4337 94.2532 44.1429 93.9746 41.8521C93.8663 40.9233 93.6341 39.9637 93.2626 39.1124C92.659 37.7657 91.1576 37.2704 89.8109 37.8431C88.8668 38.2301 88.3405 39.0195 88.1547 39.9637C87.8452 41.4651 87.6749 42.982 87.4582 44.4834Z" fill="#646464"/>
<path d="M159.756 69.636C158.054 69.636 156.366 69.6205 154.664 69.6515C154.199 69.6515 154.014 69.5586 154.014 69.0324C154.045 66.1998 154.014 63.3673 154.045 60.5193C154.045 60.2561 154.168 59.9311 154.339 59.7299C155.252 58.6154 156.181 57.5319 157.14 56.4639C157.311 56.2782 157.636 56.1234 157.899 56.1234C161.289 56.1079 164.694 56.1234 168.084 56.1079C168.532 56.1079 168.703 56.2317 168.703 56.6961C168.687 59.2036 168.703 61.6956 168.687 64.2031C168.687 64.4817 168.594 64.7913 168.44 65.0389C167.557 66.4475 166.629 67.8251 165.731 69.2181C165.53 69.5432 165.282 69.6515 164.91 69.6515C163.192 69.636 161.474 69.636 159.756 69.636ZM154.973 60.8288C154.973 61.0765 154.973 61.2467 154.973 61.4325C154.973 63.6459 154.989 65.8748 154.958 68.0882C154.958 68.599 155.113 68.7073 155.592 68.7073C158.41 68.6918 161.227 68.6918 164.044 68.6918C164.229 68.6918 164.4 68.6764 164.601 68.6609C164.601 66.0141 164.601 63.4292 164.601 60.8133C161.397 60.8288 158.239 60.8288 154.973 60.8288ZM165.592 67.4691C165.638 67.4845 165.684 67.5 165.731 67.5155C165.808 67.4381 165.886 67.3607 165.948 67.2833C166.505 66.4165 167.062 65.5652 167.588 64.6829C167.712 64.4972 167.758 64.2341 167.758 64.0019C167.774 62.129 167.774 60.2406 167.758 58.3678C167.758 58.2285 167.728 58.1046 167.681 57.8415C167.031 58.6464 166.443 59.3274 165.886 60.0549C165.715 60.2716 165.607 60.5812 165.607 60.8598C165.576 62.6088 165.592 64.3579 165.592 66.107C165.592 66.5403 165.592 67.0047 165.592 67.4691ZM166.954 57.1914C166.938 57.145 166.907 57.0985 166.892 57.0366C166.226 57.0366 165.545 57.114 164.895 57.0211C163.394 56.789 162.31 57.2843 161.552 58.5845C161.304 59.0024 160.933 59.3429 160.53 59.8382C161.985 59.8382 163.27 59.8382 164.554 59.8382C164.647 59.8382 164.787 59.7763 164.849 59.7144C165.545 58.8785 166.257 58.0427 166.954 57.1914ZM155.608 59.7144C155.623 59.7608 155.654 59.8072 155.67 59.8537C156.32 59.8537 156.986 59.7763 157.62 59.8692C158.843 60.0394 159.725 59.6679 160.375 58.5845C160.685 58.0737 161.134 57.6403 161.629 57.0521C160.282 57.0521 159.122 57.0521 157.961 57.0521C157.899 57.0521 157.821 57.0985 157.775 57.1604C157.032 58.0118 156.32 58.8631 155.608 59.7144Z" fill="#646464"/>
<path d="M203.16 46.1088C203.16 47.5792 203.144 48.9568 203.16 50.3344C203.175 50.8761 203.531 51.1238 204.042 51.1393C204.429 51.1547 204.831 51.1393 205.218 51.1393C205.218 51.2012 205.218 51.2476 205.218 51.3095C202.943 51.3095 200.668 51.3095 198.392 51.3095C198.392 51.2786 198.377 51.2321 198.377 51.2012C198.563 51.1857 198.733 51.1547 198.919 51.1547C199.863 51.1393 200.095 50.9071 200.111 49.9474C200.126 49.1116 200.111 48.2758 200.111 47.4244C200.111 44.7312 200.111 42.0534 200.111 39.3602C200.111 38.0445 200.002 37.9207 198.702 37.8743C198.594 37.8743 198.501 37.8433 198.392 37.735C198.501 37.7195 198.609 37.6731 198.717 37.6731C200.714 37.6731 202.711 37.6576 204.708 37.6885C205.265 37.704 205.822 37.7814 206.364 37.9207C208.128 38.3386 209.181 39.4686 209.398 41.0938C209.645 42.9357 208.84 44.5609 207.262 45.4123C206.286 45.9385 205.218 46.0933 204.119 46.1088C203.825 46.1088 203.531 46.1088 203.16 46.1088ZM203.175 45.8611C204.506 46.1088 205.559 45.567 205.915 44.3288C206.379 42.719 206.364 41.0783 205.946 39.4686C205.605 38.1374 204.553 37.5957 203.191 37.9671C203.175 40.5985 203.175 43.2298 203.175 45.8611Z" fill="#646464"/>
<path d="M107.316 37.8896C106.17 37.8896 105.025 37.6884 104.034 38.3694C102.997 39.0814 103.121 40.2733 102.904 41.3258C102.904 40.134 102.904 38.9421 102.904 37.7039C106.898 37.7039 110.814 37.7039 114.807 37.7039C114.807 38.9112 114.807 40.1185 114.807 41.3103C114.575 40.2887 114.745 39.0505 113.693 38.3539C112.718 37.6884 111.588 37.8896 110.427 37.8741C110.411 38.0753 110.396 38.2611 110.396 38.4313C110.396 42.2236 110.396 46.0158 110.396 49.7925C110.396 49.8699 110.396 49.9473 110.396 50.0092C110.427 50.876 110.644 51.1082 111.495 51.1236C111.696 51.1236 111.882 51.1236 112.083 51.1236C112.083 51.1701 112.083 51.2165 112.083 51.2629C109.931 51.2629 107.795 51.2629 105.644 51.2629C105.644 51.232 105.628 51.201 105.628 51.1701C105.892 51.1546 106.139 51.1391 106.402 51.1236C107.022 51.0772 107.238 50.8915 107.316 50.2878C107.347 50.0866 107.347 49.8854 107.347 49.6687C107.347 45.9384 107.347 42.2081 107.347 38.4778C107.347 38.3075 107.331 38.1218 107.316 37.8896Z" fill="#646464"/>
<path d="M178.797 47.7342C178.797 47.4556 178.797 47.177 178.797 46.9138C178.797 44.3599 178.797 41.8059 178.797 39.252C178.797 38.0911 178.596 37.8899 177.419 37.8899C177.094 37.8899 176.769 37.8899 176.444 37.8899C176.444 37.8434 176.444 37.797 176.444 37.7506C178.054 37.7506 179.679 37.7506 181.289 37.7506C181.289 37.797 181.289 37.8434 181.289 37.8899C180.948 37.8899 180.623 37.8899 180.283 37.8899C179.199 37.8899 178.967 38.1221 178.967 39.2056C178.967 42.131 178.967 45.0719 178.967 47.9973C178.967 49.0963 178.967 50.1953 178.967 51.2788C177.961 51.4955 177.899 51.4645 177.373 50.6751C174.912 46.9138 172.435 43.168 169.974 39.4068C169.866 39.2365 169.742 39.0817 169.556 38.8031C169.525 39.0662 169.51 39.2056 169.51 39.3294C169.51 42.812 169.51 46.3102 169.51 49.7928C169.51 49.8702 169.51 49.9476 169.51 50.0095C169.541 50.9073 169.757 51.124 170.655 51.1394C171.104 51.1394 171.553 51.1549 172.002 51.1704C172.017 51.1704 172.048 51.2168 172.11 51.2942C170.454 51.2942 168.844 51.2942 167.25 51.2942C167.25 51.2633 167.25 51.2168 167.234 51.1859C167.513 51.1704 167.792 51.1549 168.07 51.1549C169.076 51.1394 169.324 50.9228 169.324 49.8857C169.324 47.8271 169.324 45.7839 169.324 43.7253C169.324 42.1774 169.324 40.6296 169.324 39.0817C169.324 38.1221 169.076 37.8899 168.132 37.8744C167.838 37.8744 167.544 37.8744 167.234 37.8744C167.234 37.8125 167.234 37.7661 167.234 37.7041C167.405 37.6887 167.575 37.6732 167.761 37.6732C168.999 37.6732 170.222 37.6887 171.46 37.6577C171.893 37.6422 172.126 37.8125 172.358 38.153C174.339 41.2023 176.336 44.2361 178.332 47.2853C178.441 47.4556 178.565 47.6104 178.673 47.7806C178.719 47.7651 178.75 47.7497 178.797 47.7342Z" fill="#646464"/>
<path d="M192.989 51.3094C190.838 51.3094 188.671 51.3094 186.519 51.3094C186.519 51.2629 186.504 51.232 186.504 51.1855C186.674 51.1701 186.86 51.1391 187.03 51.1391C187.99 51.1236 188.222 50.9069 188.222 49.9318C188.237 48.7554 188.222 47.5791 188.222 46.4027C188.222 44.081 188.222 41.7747 188.222 39.4529C188.222 38.1992 188.083 37.7503 186.736 37.8432C186.659 37.8432 186.566 37.8122 186.504 37.7039C188.655 37.7039 190.822 37.7039 192.974 37.7039C192.974 37.7348 192.989 37.7658 192.989 37.7967C192.788 37.8122 192.602 37.8432 192.401 37.8432C191.519 37.8586 191.271 38.1063 191.256 38.9886C191.24 41.1865 191.256 43.3999 191.256 45.5978C191.256 47.0219 191.256 48.4304 191.256 49.8544C191.256 50.8915 191.472 51.0927 192.494 51.1236C192.649 51.1236 192.804 51.1391 192.974 51.1546C192.989 51.2165 192.989 51.2629 192.989 51.3094Z" fill="#646464"/>
<path d="M120.566 61.6956C120.334 61.6956 120.148 61.6956 119.854 61.6956C119.854 60.674 119.854 59.6679 119.854 58.6618C119.808 58.6463 119.761 58.6463 119.73 58.6309C119.374 59.2964 119.034 59.9775 118.662 60.6276C118.539 60.8288 118.291 61.1384 118.152 61.1074C117.935 61.0765 117.718 60.8133 117.579 60.5966C117.192 59.9465 116.852 59.2655 116.387 58.6154C116.387 59.6215 116.387 60.6276 116.387 61.6182C115.644 61.773 115.613 61.7575 115.613 61.1074C115.613 59.962 115.598 58.8321 115.629 57.6867C115.629 57.4855 115.737 57.1604 115.861 57.114C116.17 57.0211 116.496 57.0366 116.697 57.439C117.13 58.3213 117.625 59.1881 118.136 60.1478C118.585 59.2964 119.018 58.4916 119.452 57.6867C119.792 57.0521 119.792 57.0521 120.582 57.1295C120.566 58.6309 120.566 60.1323 120.566 61.6956Z" fill="#646464"/>
<path d="M173.734 57.052C174.57 57.0984 175.422 57.0675 176.226 57.2223C177.233 57.4235 177.852 58.4605 177.79 59.5285C177.728 60.6585 177.047 61.5098 175.994 61.6336C175.267 61.7265 174.508 61.6491 173.734 61.6491C173.734 60.1632 173.734 58.6618 173.734 57.052ZM174.601 61.0145C175.406 61.0299 176.195 61.1847 176.691 60.3799C177.047 59.7917 177 58.8475 176.598 58.3212C176.211 57.8104 175.437 57.6402 174.601 57.9033C174.601 58.8939 174.601 59.9155 174.601 61.0145Z" fill="#646464"/>
<path d="M207.68 61.6955C207.68 60.8597 207.68 60.0858 207.68 59.2964C207.68 59.0332 207.68 58.7701 207.68 58.507C207.68 57.052 207.68 57.052 209.166 57.0675C209.32 57.0675 209.46 57.0829 209.614 57.0984C210.172 57.1603 210.698 57.2842 210.899 57.9033C211.116 58.5224 210.837 58.9404 210.296 59.2964C210.915 59.5905 211.24 60.0238 211.054 60.6894C210.853 61.386 210.296 61.6336 209.645 61.68C209.011 61.7265 208.392 61.6955 207.68 61.6955ZM208.562 61.0764C209.026 61.0454 209.444 61.0764 209.816 60.9526C210.001 60.8906 210.203 60.5501 210.218 60.3334C210.218 60.1477 209.986 59.8226 209.816 59.7762C209.413 59.6988 208.995 59.7452 208.562 59.7452C208.562 60.1786 208.562 60.5656 208.562 61.0764ZM208.562 59.0951C209.104 59.0178 209.692 59.2809 210.017 58.7237C210.125 58.5534 210.094 58.151 209.971 58.0116C209.584 57.6092 209.073 57.7485 208.562 57.7795C208.562 58.2283 208.562 58.6153 208.562 59.0951Z" fill="#646464"/>
<path d="M104.562 61.7574C103.185 61.7574 102.225 60.7668 102.24 59.3738C102.256 58.0117 103.216 57.052 104.578 57.052C105.94 57.052 106.93 58.0736 106.915 59.4357C106.899 60.7978 105.924 61.7574 104.562 61.7574ZM106.033 59.4047C106.033 58.4141 105.46 57.795 104.578 57.795C103.664 57.795 103.107 58.4141 103.123 59.4512C103.138 60.4418 103.68 61.0454 104.593 61.03C105.491 61.0145 106.033 60.3799 106.033 59.4047Z" fill="#646464"/>
<path d="M229.257 57.052C230.619 57.052 231.579 57.9962 231.595 59.3738C231.61 60.7823 230.666 61.7574 229.273 61.7574C227.911 61.7574 226.951 60.7978 226.92 59.4357C226.905 58.0736 227.895 57.052 229.257 57.052ZM230.712 59.4047C230.712 58.3831 230.171 57.7795 229.257 57.795C228.36 57.795 227.802 58.4296 227.802 59.4202C227.802 60.3953 228.375 61.03 229.273 61.03C230.186 61.0145 230.712 60.4108 230.712 59.4047Z" fill="#646464"/>
<path d="M234.658 57.052C235.417 57.0984 236.144 57.1139 236.871 57.2223C237.336 57.2997 237.661 57.6247 237.754 58.12C237.847 58.6463 237.738 59.1261 237.289 59.4666C237.181 59.5595 237.042 59.6369 236.887 59.7453C237.305 60.3644 237.723 60.9681 238.156 61.6182C237.63 61.773 237.227 61.773 236.933 61.2622C236.732 60.8907 236.5 60.5192 236.221 60.1941C236.098 60.0548 235.865 60.0084 235.664 59.9155C235.602 60.0858 235.509 60.2561 235.478 60.4263C235.447 60.6275 235.478 60.8288 235.463 61.0455C235.463 61.7575 235.447 61.773 234.643 61.6491C234.658 60.1632 234.658 58.6618 234.658 57.052ZM235.509 59.2345C236.407 59.3738 236.902 59.1416 236.949 58.5689C236.995 58.0426 236.624 57.7485 235.927 57.7485C235.416 57.7485 235.386 57.8724 235.509 59.2345Z" fill="#646464"/>
<path d="M197.789 59.9777C197.789 60.5349 197.789 61.0766 197.789 61.6184C196.984 61.8196 196.922 61.7732 196.922 61.0457C196.922 59.8848 196.937 58.7394 196.922 57.5785C196.922 57.207 197.046 57.0677 197.402 57.0987C197.866 57.1296 198.33 57.0987 198.795 57.1606C199.538 57.238 199.94 57.563 200.064 58.1357C200.203 58.7239 199.971 59.2347 199.367 59.6371C199.321 59.6681 199.275 59.6991 199.197 59.761C199.615 60.3801 200.018 60.9838 200.466 61.6339C199.94 61.7887 199.538 61.8041 199.259 61.2779C199.058 60.9219 198.841 60.5659 198.578 60.2563C198.423 60.0705 198.145 59.9777 197.928 59.8384C197.882 59.8848 197.835 59.9312 197.789 59.9777ZM197.804 57.7952C197.804 58.306 197.804 58.7703 197.804 59.2657C198.315 59.3121 198.826 59.4204 199.12 58.9251C199.244 58.7239 199.244 58.306 199.104 58.1048C198.826 57.6404 198.315 57.7333 197.804 57.7952Z" fill="#646464"/>
<path d="M217.042 57.1295C217.351 57.1295 217.584 57.1295 217.971 57.1295C217.924 58.2904 217.955 59.4358 217.785 60.5502C217.661 61.3706 216.779 61.8194 215.819 61.742C214.921 61.6801 214.194 61.0765 214.147 60.2252C214.086 59.2036 214.132 58.182 214.132 57.114C214.38 57.114 214.612 57.114 214.952 57.114C214.952 57.7796 214.952 58.4452 214.952 59.0952C214.952 59.4048 214.937 59.7299 214.983 60.0394C215.061 60.674 215.479 60.9991 216.082 60.9681C216.655 60.9372 217.026 60.5812 217.042 59.9466C217.057 59.0643 217.042 58.1356 217.042 57.1295Z" fill="#646464"/>
<path d="M126.325 59.73C125.767 59.73 125.288 59.73 124.761 59.73C124.761 60.1634 124.761 60.5658 124.761 61.0147C125.411 61.0147 126.031 61.0147 126.712 61.0147C126.712 61.2624 126.712 61.4481 126.712 61.6803C125.783 61.6803 124.854 61.6803 123.895 61.6803C123.895 60.1634 123.895 58.6775 123.895 57.1296C124.839 57.1296 125.767 57.1296 126.743 57.1296C126.743 57.3463 126.743 57.5166 126.743 57.7797C126.092 57.7797 125.442 57.7797 124.761 57.7797C124.761 58.2286 124.761 58.6156 124.761 59.049C125.272 59.049 125.767 59.049 126.294 59.049C126.309 59.2811 126.309 59.4669 126.325 59.73Z" fill="#646464"/>
<path d="M99.5004 61.0299C98.711 61.9122 97.287 61.9896 96.4047 61.2311C95.476 60.4262 95.3831 58.7391 96.2345 57.7794C97.0393 56.8662 98.5562 56.7888 99.5314 57.6246C99.3766 57.9961 99.2218 58.2283 98.7265 57.9497C98.0764 57.5782 97.2715 57.7639 96.8691 58.3211C96.4047 58.9248 96.4357 59.9928 96.9155 60.5655C97.3489 61.0763 98.1693 61.2001 98.8039 60.7822C99.1908 60.5191 99.2992 60.7822 99.5004 61.0299Z" fill="#646464"/>
<path d="M143.784 61.03C143.025 61.9277 141.57 62.0051 140.657 61.2157C139.744 60.4263 139.682 58.6927 140.533 57.764C141.369 56.8508 142.932 56.7889 143.799 57.6402C143.66 58.0272 143.49 58.2129 143.025 57.9498C142.375 57.5783 141.57 57.764 141.152 58.2903C140.688 58.894 140.704 59.962 141.183 60.5347C141.632 61.0764 142.406 61.1848 143.103 60.7514C143.536 60.5037 143.598 60.8288 143.784 61.03Z" fill="#646464"/>
<path d="M109.592 61.1383C109.731 60.7204 109.901 60.5191 110.381 60.8287C110.629 60.999 111.016 61.0454 111.325 60.999C111.511 60.968 111.774 60.6894 111.805 60.4882C111.821 60.3024 111.635 60.0083 111.449 59.8845C111.202 59.7143 110.861 59.6678 110.567 59.5595C110.025 59.3583 109.716 58.9868 109.731 58.3831C109.747 57.8104 110.056 57.3461 110.613 57.1603C111.294 56.9281 111.929 57.052 112.533 57.5008C112.409 57.9188 112.285 58.2283 111.79 57.8878C111.65 57.7949 111.418 57.7021 111.263 57.7485C111 57.8259 110.675 57.9652 110.567 58.1819C110.397 58.5069 110.691 58.7236 110.985 58.832C111.263 58.9403 111.542 59.0332 111.821 59.1416C112.285 59.3273 112.61 59.6523 112.626 60.1786C112.657 60.7358 112.455 61.2002 111.96 61.5098C111.279 61.9586 110.226 61.8038 109.592 61.1383Z" fill="#646464"/>
<path d="M184.771 61.1383C184.926 60.6895 185.112 60.5347 185.561 60.8133C185.824 60.9681 186.196 61.03 186.505 60.9835C186.691 60.9526 186.954 60.674 186.985 60.4882C187.016 60.3025 186.815 60.0084 186.644 59.8846C186.397 59.7143 186.056 59.6679 185.762 59.5595C185.205 59.3583 184.911 58.9559 184.926 58.3677C184.942 57.795 185.236 57.3771 185.778 57.1604C186.35 56.9282 186.908 57.0056 187.449 57.2842C187.681 57.4081 187.821 57.5783 187.604 57.795C187.496 57.9034 187.279 57.9343 187.124 57.9188C186.83 57.8879 186.536 57.7176 186.273 57.7641C186.072 57.795 185.824 58.0427 185.762 58.2439C185.731 58.3832 185.948 58.6618 186.118 58.7856C186.366 58.9404 186.675 58.9868 186.954 59.0952C187.604 59.3583 187.852 59.6989 187.836 60.3025C187.821 60.9526 187.465 61.4324 186.846 61.6491C186.134 61.8968 185.36 61.711 184.771 61.1383Z" fill="#646464"/>
<path d="M146.463 61.2003C146.633 60.674 146.881 60.5347 147.299 60.8598C147.423 60.9526 147.608 61.0146 147.763 61.0455C148.166 61.0919 148.583 61.061 148.707 60.5812C148.831 60.1013 148.491 59.9156 148.119 59.7918C147.871 59.7144 147.624 59.637 147.376 59.5441C146.912 59.3738 146.664 59.0178 146.618 58.5225C146.587 58.0272 146.772 57.6093 147.19 57.3307C147.717 56.9747 148.63 56.9592 149.156 57.3462C149.264 57.4236 149.342 57.7022 149.295 57.8105C149.249 57.9189 148.986 57.9808 148.831 57.9653C148.522 57.9343 148.227 57.7796 147.933 57.8105C147.763 57.826 147.5 58.0891 147.469 58.2594C147.438 58.4297 147.639 58.6928 147.81 58.8011C148.073 58.9714 148.398 59.0333 148.692 59.1417C149.234 59.3429 149.559 59.7144 149.543 60.318C149.528 60.9372 149.249 61.4015 148.676 61.6337C147.871 61.9278 147.144 61.742 146.463 61.2003Z" fill="#646464"/>
<path d="M129.451 57.8415C129.451 57.5629 129.451 57.3772 129.451 57.145C130.643 57.145 131.819 57.145 133.027 57.145C133.027 57.3617 133.027 57.5475 133.027 57.7951C132.593 57.7951 132.191 57.7951 131.711 57.7951C131.711 59.0953 131.711 60.349 131.711 61.6802C131.401 61.6957 131.154 61.7112 130.829 61.7266C130.829 60.4264 130.829 59.1727 130.829 57.8415C130.349 57.8415 129.931 57.8415 129.451 57.8415Z" fill="#646464"/>
<path d="M224.287 57.1296C224.287 57.3463 224.287 57.5476 224.287 57.8107C223.853 57.8107 223.435 57.8107 222.956 57.8107C222.956 59.1264 222.956 60.3801 222.956 61.6803C222.646 61.6803 222.398 61.6803 222.089 61.6803C222.089 60.3956 222.089 59.1418 222.089 57.8262C221.609 57.8262 221.191 57.8262 220.742 57.8262C220.742 57.563 220.742 57.3618 220.742 57.1451C221.919 57.1296 223.095 57.1296 224.287 57.1296Z" fill="#646464"/>
<path d="M191.813 57.8106C191.349 57.8106 191.039 57.8416 190.73 57.7951C190.606 57.7796 190.436 57.5784 190.436 57.4701C190.436 57.3463 190.606 57.1141 190.714 57.1141C191.813 57.0831 192.912 57.0986 194.042 57.0986C194.042 57.3617 194.042 57.5475 194.042 57.8106C193.593 57.8106 193.175 57.8106 192.68 57.8106C192.68 59.1263 192.68 60.3955 192.68 61.6802C192.37 61.6802 192.138 61.6802 191.829 61.6802C191.813 60.3955 191.813 59.1263 191.813 57.8106Z" fill="#646464"/>
<path d="M180.9 57.0676C181.194 57.0676 181.427 57.0676 181.721 57.0676C181.721 58.6 181.721 60.1324 181.721 61.7112C181.473 61.7112 181.21 61.7112 180.9 61.7112C180.9 60.1943 180.9 58.6619 180.9 57.0676Z" fill="#646464"/>
<path d="M203.516 61.7265C203.516 60.1477 203.516 58.6308 203.516 57.083C203.794 57.083 204.057 57.083 204.336 57.083C204.336 58.6308 204.336 60.1632 204.336 61.7265C204.073 61.7265 203.81 61.7265 203.516 61.7265Z" fill="#646464"/>
<path d="M136.82 57.083C136.82 58.6308 136.82 60.1477 136.82 61.711C136.557 61.711 136.294 61.711 135.984 61.711C135.984 60.1942 135.984 58.6618 135.984 57.083C136.248 57.083 136.511 57.083 136.82 57.083Z" fill="#646464"/>
<path d="M143.073 46.2793C141.447 46.2793 139.807 46.2793 137.965 46.2793C138.166 46.0781 138.274 45.8768 138.383 45.8768C139.869 45.8614 141.355 45.8614 142.856 45.8768C142.964 45.8768 143.073 46.0626 143.181 46.1554C143.135 46.1864 143.104 46.2328 143.073 46.2793Z" fill="#646464"/>
<path d="M158.008 62.7793C159.153 62.7793 160.206 62.7638 161.258 62.7947C161.382 62.7947 161.506 63.1043 161.63 63.2591C161.583 63.3055 161.537 63.3365 161.49 63.3829C160.361 63.3829 159.231 63.3829 158.054 63.3829C158.039 63.2281 158.039 63.0579 158.008 62.7793Z" fill="#646464"/>
</svg>
